<?xml version="1.0" standalone="no"?><!DOCTYPE svg PUBLIC "-//W3C//DTD SVG 1.1//EN" "http://www.w3.org/Graphics/SVG/1.1/DTD/svg11.dtd"><svg t="1731698583235" class="icon" viewBox="0 0 1024 1024" version="1.1" xmlns="http://www.w3.org/2000/svg" p-id="6219" xmlns:xlink="http://www.w3.org/1999/xlink" width="200" height="200"><path d="M105.045333 947.242667h525.696a105.216 105.216 0 0 0 101.077334-79.104c1.109333 0.170667 2.218667 0.341333 3.370666 0.341333a26.496 26.496 0 0 0 26.24-26.24 26.496 26.496 0 0 0-26.24-26.24c-1.152 0-2.261333 0.170667-3.370666 0.298667l-0.597334-2.346667a26.453333 26.453333 0 0 0 16.128-24.234667 26.496 26.496 0 0 0-26.24-26.24 25.941333 25.941333 0 0 0-15.829333 5.418667l-1.792-1.749333a25.856 25.856 0 0 0 5.333333-15.701334c0-28.586667-39.210667-36.608-50.389333-10.282666l-2.346667-0.597334c0.128-1.109333 0.341333-2.218667 0.341334-3.370666a26.538667 26.538667 0 0 0-26.282667-26.24 26.496 26.496 0 0 0-26.24 26.24h-4.096a26.325333 26.325333 0 0 0-44.074667 0h-30.592v-105.002667h105.002667c4.906667 0 9.642667-0.725333 14.122667-2.005333a13.098667 13.098667 0 1 0 22.570666-12.970667l0.853334-0.896c2.218667 1.706667 4.949333 2.730667 7.936 2.730667h0.085333c14.378667 0 18.261333-19.754667 4.992-25.216l0.298667-1.194667c0.554667 0.042667 1.109333 0.170667 1.664 0.170667a13.226667 13.226667 0 0 0 13.141333-13.141334 13.226667 13.226667 0 0 0-13.141333-13.141333c-0.554667 0-1.109333 0.128-1.664 0.170667a11.946667 11.946667 0 0 1-0.298667-1.152c13.952-5.546667-1.194667-31.786667-13.013333-22.528l-0.853334-0.896a13.098667 13.098667 0 0 0 2.645334-7.850667c-0.469333-13.909333-19.370667-17.749333-25.216-5.12a52.821333 52.821333 0 0 0-13.653334-2.005333h-91.434666a105.173333 105.173333 0 0 1 90.965333-52.48h315.093333V422.144l-367.701333-22.997333a56.106667 56.106667 0 0 1-52.437333-55.808c0-29.354667 23.125333-53.973333 52.437333-55.765334l367.701333-22.997333v-52.48a105.514667 105.514667 0 0 0-105.045333-105.045333H367.573333l-13.098666-22.741334a15.189333 15.189333 0 0 0-26.282667 0l-13.098667 22.741334-13.141333-22.741334a15.146667 15.146667 0 0 0-26.24 0l-13.141333 22.741334-13.141334-22.741334a15.146667 15.146667 0 0 0-26.24 0l-13.141333 22.741334-0.341333 0.042666-21.76-21.76a15.104 15.104 0 0 0-25.344 6.784l-7.168 26.794667-27.264-7.296a15.232 15.232 0 0 0-18.602667 18.56l7.338667 27.264-26.794667 7.210667a15.189333 15.189333 0 0 0-6.826667 25.344l21.76 21.76v0.341333l-22.741333 13.098667a15.189333 15.189333 0 0 0 0 26.282666l22.741333 13.098667-22.741333 13.141333a15.189333 15.189333 0 0 0 0 26.282667l22.741333 13.098667-22.741333 13.141333a15.146667 15.146667 0 0 0 0 26.24l22.741333 13.141333-22.741333 13.141334a15.146667 15.146667 0 0 0 0 26.24l22.741333 13.141333-22.741333 13.098667a15.189333 15.189333 0 0 0 0 26.282666l22.741333 13.141334-22.741333 13.098666a15.189333 15.189333 0 0 0 0 26.282667l22.741333 13.098667-22.741333 13.141333a15.146667 15.146667 0 0 0 0 26.24l22.741333 13.141333-22.741333 13.141334a15.146667 15.146667 0 0 0 0 26.24l22.741333 13.141333-22.741333 13.141333a15.146667 15.146667 0 0 0 0 26.24l22.741333 13.141334-22.741333 13.098666a15.189333 15.189333 0 0 0 0 26.282667l22.741333 13.098667-22.741333 13.141333a15.146667 15.146667 0 0 0 0 26.24l22.741333 13.141333-22.741333 13.141334a15.146667 15.146667 0 0 0 0 26.24l22.741333 13.141333a105.088 105.088 0 0 1-90.88-52.522667A105.173333 105.173333 0 0 0 0 842.24c0 57.6 47.445333 104.96 105.045333 105.002667z m840.192-222.037334v117.034667a105.514667 105.514667 0 0 1-105.002666 105.002667h-0.042667 52.522667a105.216 105.216 0 0 0 101.674666-79.104c1.109333 0.170667 2.218667 0.341333 3.370667 0.341333A26.496 26.496 0 0 0 1024 842.24a26.496 26.496 0 0 0-26.24-26.24c-1.152 0-2.261333 0.170667-3.370667 0.298667l-0.597333-2.346667a26.453333 26.453333 0 0 0 16.128-24.234667 26.496 26.496 0 0 0-26.24-26.24 25.941333 25.941333 0 0 0-15.829333 5.418667l-1.792-1.749333a26.112 26.112 0 0 0 5.333333-15.701334 26.581333 26.581333 0 0 0-26.154667-26.24z m-173.525333 111.786667h94.848c2.858667 0 5.248 2.389333 5.248 5.248a5.290667 5.290667 0 0 1-5.248 5.248h-94.848a36.053333 36.053333 0 0 0 0-10.496z m-14.08-52.522667h108.928c2.858667 0 5.248 2.389333 5.248 5.248a5.290667 5.290667 0 0 1-5.248 5.248h-108.928a36.053333 36.053333 0 0 0 0-10.496z m-43.776-52.522666h152.704c2.858667 0 5.248 2.389333 5.248 5.248a5.290667 5.290667 0 0 1-5.248 5.248h-148.224a36.266667 36.266667 0 0 0-4.48-10.496z m152.704-41.984h-262.784a5.376 5.376 0 0 1-5.248-5.248c0-2.901333 2.389333-5.248 5.248-5.248h262.784c2.858667 0 5.248 2.389333 5.248 5.248a5.290667 5.290667 0 0 1-5.248 5.248z m78.677333-162.816v105.045333c4.906667 0 9.6-0.725333 14.122667-2.005333a13.141333 13.141333 0 1 0 22.528-12.970667l0.896-0.896c2.218667 1.706667 4.949333 2.730667 7.936 2.730667a13.312 13.312 0 0 0 13.098667-13.141334 13.056 13.056 0 0 0-8.064-12.074666l0.298666-1.194667c0.554667 0.042667 1.109333 0.170667 1.706667 0.170667a13.312 13.312 0 0 0 13.098667-13.141334 13.312 13.312 0 0 0-13.098667-13.141333c-0.597333 0-1.152 0.128-1.706667 0.170667l-0.298666-1.152a13.226667 13.226667 0 0 0-5.034667-25.258667 13.056 13.056 0 0 0-7.936 2.730667l-0.896-0.896a12.8 12.8 0 0 0 2.688-7.850667c-0.469333-13.909333-19.370667-17.749333-25.216-5.12a52.906667 52.906667 0 0 0-13.696-2.005333z m-258.517333 99.797333h179.84c2.858667 0 5.248 2.389333 5.248 5.248a5.290667 5.290667 0 0 1-5.248 5.248h-189.909333a24.064 24.064 0 0 0 3.114666-8.106667 23.594667 23.594667 0 0 0 6.954667-2.389333z m19.370667-51.541333h160.469333c2.858667 0 5.248 2.389333 5.248 5.248a5.290667 5.290667 0 0 1-5.248 5.248h-160.938667a23.552 23.552 0 0 0 0.469334-10.496z m239.146666-265.6h-0.170666c-16.256 0.554667-23.936 16.768-30.677334 31.104-7.082667 14.933333-12.544 24.661333-21.504 24.405333-9.941333-0.384-15.616-11.562667-21.589333-23.424-6.912-13.653333-14.805333-29.098667-31.317333-28.501333-16 0.554667-23.722667 14.677333-30.506667 27.136-7.210667 13.269333-12.16 21.333333-21.632 20.949333-10.112-0.341333-15.488-9.472-21.717333-20.010667-6.954667-11.733333-14.976-24.96-31.189334-24.490666-15.701333 0.554667-23.424 12.544-30.250666 23.125333-7.210667 11.178667-12.245333 17.962667-21.888 17.578667-10.368-0.384-15.701333-7.936-21.888-16.682667-6.954667-9.856-14.805333-20.949333-30.976-20.437333-15.36 0.554667-23.082667 10.368-29.909334 19.029333-6.442667 8.192-11.52 14.677333-22.186666 14.293333h-0.213334a5.376 5.376 0 0 0-5.248 5.248c0 2.816 2.261333 5.162667 5.077334 5.248 15.829333 0.512 23.850667-9.472 30.848-18.304 6.186667-7.850667 11.52-14.634667 22.016-15.018666 10.112-0.426667 14.848 5.888 22.016 16 6.826667 9.642667 14.549333 20.565333 30.08 21.12 16.298667 0.554667 24.149333-11.648 31.104-22.4 6.186667-9.642667 11.562667-17.962667 21.802666-18.304 9.386667-0.341333 14.506667 7.082667 21.76 19.328 6.784 11.562667 14.506667 24.618667 30.378667 25.173333 16.426667 0.597333 24.32-13.738667 31.232-26.410667 5.973333-10.965333 11.648-21.333333 21.632-21.674666 9.429333-0.213333 14.336 8.362667 21.589333 22.741333 6.784 13.397333 14.464 28.586667 30.592 29.184h0.896c16.085333 0 23.722667-16.128 30.464-30.421333 5.973333-12.672 11.648-24.576 21.376-25.088zM315.093333 277.717333a13.312 13.312 0 0 1-13.141333-13.141333c-0.426667-22.698667-16.128-38.869333-39.552-39.338667-22.528-0.469333-37.888 18.432-39.210667 39.338667-0.469333 7.168-5.930667 13.098667-13.141333 13.141333a13.226667 13.226667 0 0 1-13.141333-13.141333c0-36.181333 29.44-65.621333 65.664-65.621333 36.181333 0 65.621333 29.44 65.621333 65.621333a13.312 13.312 0 0 1-13.098667 13.141333z m420.096-98.474666a13.226667 13.226667 0 0 1 13.141334 13.141333 13.226667 13.226667 0 0 1-13.141334 13.141333 13.226667 13.226667 0 0 1-13.141333-13.141333 13.226667 13.226667 0 0 1 13.141333-13.141333z m105.002667-6.528a13.226667 13.226667 0 0 1 13.098667 13.141333 13.226667 13.226667 0 0 1-13.141334 13.141333h-0.042666a13.226667 13.226667 0 0 1-13.098667-13.141333 13.226667 13.226667 0 0 1 13.141333-13.141333z" fill="#3ECC5F" p-id="6220"></path></svg>