<?xml version="1.0" standalone="no"?><!DOCTYPE svg PUBLIC "-//W3C//DTD SVG 1.1//EN" "http://www.w3.org/Graphics/SVG/1.1/DTD/svg11.dtd"><svg t="1731703027533" class="icon" viewBox="0 0 1024 1024" version="1.1" xmlns="http://www.w3.org/2000/svg" p-id="24345" xmlns:xlink="http://www.w3.org/1999/xlink" width="200" height="200"><path d="M989.566 232.854H28.115v554.972h961.451V232.854zM937.07 733.079H80.613V278.602H937.07v454.477z m-793.461-55.497h71.997V445.094l58.497 85.496 53.997-85.496v232.488h68.997V343.099H326.6l-56.248 79.496-56.247-79.496h-70.497v334.483z m289.486 0H512V343.099h-78.905v334.483z m107.994-82.495c52.497 106.495 125.994 76.496 122.994 82.495 82.496-7.5 100.495-85.495 100.495-85.495V343.099h-68.997s-1.5 233.988 0 235.488c-46.498 64.496-82.495 0-82.495 0V343.099h-71.997s-3 253.487 0 251.988z m262.487 82.495h70.496V343.099h-70.496v334.483z" p-id="24346" fill="#f68a1f"></path></svg>