<?xml version="1.0" standalone="no"?><!DOCTYPE svg PUBLIC "-//W3C//DTD SVG 1.1//EN" "http://www.w3.org/Graphics/SVG/1.1/DTD/svg11.dtd"><svg t="1731739688096" class="icon" viewBox="0 0 1050 1024" version="1.1" xmlns="http://www.w3.org/2000/svg" p-id="14359" width="262.5" height="256" xmlns:xlink="http://www.w3.org/1999/xlink"><path d="M185.982906 0h678.290598C967.111111 0 1050.25641 83.145299 1050.25641 185.982906v652.034188c0 102.837607-83.145299 185.982906-185.982906 185.982906h-678.290598C83.145299 1024 0 940.854701 0 838.017094v-652.034188C0 83.145299 83.145299 0 185.982906 0z" fill="#00005B" p-id="14360"></path><path d="M249.435897 718.112821V267.815385c0-3.063248 1.312821-4.813675 4.376069-4.813676 7.439316 0 14.441026 0 24.505983-0.437606 10.502564-0.437607 21.442735-0.437607 33.258119-0.875214 11.815385-0.437607 24.505983-0.437607 38.071795-0.875214 13.565812-0.437607 26.694017-0.437607 39.822222-0.437607 35.883761 0 65.641026 4.376068 90.147009 13.565812 21.880342 7.439316 42.010256 19.692308 58.639316 35.883761 14.003419 14.003419 24.94359 31.070085 31.945299 49.88718 6.564103 18.379487 10.064957 37.196581 10.064958 56.888888 0 37.634188-8.752137 68.704274-26.256411 93.210257s-42.010256 42.88547-70.4547 53.388034c-29.757265 10.940171-62.577778 14.878632-98.461539 14.878632-10.502564 0-17.504274 0-21.880342-0.437606s-10.502564-0.437607-18.817094-0.437607V717.675214c0.437607 3.063248-1.750427 5.688889-4.813675 6.126495H254.687179c-3.500855 0-5.251282-1.750427-5.251282-5.688888z m95.398291-370.652992V494.495726c6.126496 0.437607 11.815385 0.875214 17.066667 0.875214H385.094017c17.066667 0 34.133333-2.625641 50.324786-7.876923 14.003419-3.938462 26.25641-12.252991 35.883761-23.193162 9.189744-10.940171 13.565812-25.818803 13.565812-45.073505 0.437607-13.565812-3.063248-27.131624-10.064957-38.947008-7.439316-11.377778-17.94188-20.129915-30.632479-24.94359-16.191453-6.564103-33.695726-9.189744-51.637607-8.752137-11.377778 0-21.442735 0-29.757265 0.437607-8.752137-0.437607-14.878632 0-17.94188 0.437607zM641.531624 372.841026h76.581197c4.376068 0 7.876923 3.063248 9.189743 7.001709 1.312821 3.500855 2.188034 7.001709 2.625641 10.940171 0.875214 4.376068 1.750427 9.189744 2.188034 13.565812 0.437607 4.813675 0.875214 10.064957 0.875214 15.753846 13.128205-15.316239 28.882051-28.006838 46.823932-37.634188 20.129915-11.377778 43.323077-17.066667 66.516239-17.066667 3.063248-0.437607 5.688889 1.750427 6.126496 4.813676v87.08376c0 3.500855-2.188034 4.813675-7.00171 4.813676-15.753846-0.437607-31.945299 0.875214-47.261538 4.376068-12.690598 2.625641-24.94359 6.564103-36.758975 11.815385-8.31453 3.938462-16.191453 9.189744-22.317948 16.191452v223.179488c0 4.376068-1.750427 6.126496-5.688889 6.126495h-86.208547c-3.500855 0.437607-6.564103-1.750427-7.00171-5.251282v-244.184615c0-10.502564 0-21.442735-0.437606-32.820513s-0.437607-22.755556-0.875214-34.133333c0-10.064957-0.875214-19.692308-1.750427-29.757265-0.437607-2.188034 0.875214-4.376068 3.063247-4.813675 0-0.437607 0.875214-0.437607 1.312821 0z" fill="#9999FF" p-id="14361"></path></svg>