<?xml version="1.0" standalone="no"?><!DOCTYPE svg PUBLIC "-//W3C//DTD SVG 1.1//EN" "http://www.w3.org/Graphics/SVG/1.1/DTD/svg11.dtd"><svg t="1731739536190" class="icon" viewBox="0 0 1282 1024" version="1.1" xmlns="http://www.w3.org/2000/svg" p-id="4642" xmlns:xlink="http://www.w3.org/1999/xlink" width="250.390625" height="200"><path d="M725.702513 553.981047m-469.597033 0a469.597033 469.597033 0 1 0 939.194067 0 469.597033 469.597033 0 1 0-939.194067 0Z" fill="#C1D3F4" p-id="4643"></path><path d="M641.3185 469.597033m-469.597033 0a469.597033 469.597033 0 1 0 939.194067 0 469.597033 469.597033 0 1 0-939.194067 0Z" fill="#FFD7E3" p-id="4644"></path><path d="M1165.765142 801.648125h-191.97363a16.032963 16.032963 0 0 1 0-31.644005h191.97363a84.384013 84.384013 0 0 0 84.384013-84.384013V117.715698a84.384013 84.384013 0 0 0-84.384013-84.384013h-506.304079V126.57602a16.032963 16.032963 0 0 1-16.032962 16.032962H117.293778a84.384013 84.384013 0 0 0-84.384013 84.384013v458.627112a84.384013 84.384013 0 0 0 84.384013 84.384013h210.960033a16.032963 16.032963 0 0 1 0 31.644005h-210.960033A117.715698 117.715698 0 0 1 0 685.620107V229.524516a117.715698 117.715698 0 0 1 117.293778-117.293778h508.41368V16.454883A15.611042 15.611042 0 0 1 641.3185 0h524.446642a117.293778 117.293778 0 0 1 116.871858 117.715698v567.904409A117.293778 117.293778 0 0 1 1165.765142 801.648125z" fill="#231815" p-id="4645"></path><path d="M1156.060981 253.15204a15.611042 15.611042 0 0 1-16.876803-17.720643V137.545941a18.986403 18.986403 0 0 0-18.564483-18.986402h-212.647713a16.032963 16.032963 0 1 1 0-31.644005h213.491553a50.208488 50.208488 0 0 1 50.208488 50.630407v97.885456a15.189122 15.189122 0 0 1-15.611042 17.720643zM1265.760198 360.319736h-258.637001a16.032963 16.032963 0 0 1-16.032962-16.032962 15.611042 15.611042 0 0 1 16.032962-15.611043H1265.760198a15.611042 15.611042 0 0 1 15.611042 15.611043 16.032963 16.032963 0 0 1-15.611042 16.032962zM311.798929 360.319736h-295.344046A16.032963 16.032963 0 0 1 0 344.286774a15.611042 15.611042 0 0 1 16.032963-15.611043h295.344046a15.611042 15.611042 0 0 1 16.032962 15.611043 16.032963 16.032963 0 0 1-15.611042 16.032962zM668.321384 772.535641a226.992995 226.992995 0 1 1 226.992996-226.992996 226.992995 226.992995 0 0 1-226.992996 226.992996z m0-411.372065a184.800989 184.800989 0 1 0 184.800989 184.379069 184.379069 184.379069 0 0 0-184.800989-184.379069zM550.605686 55.693449H374.665019a16.032963 16.032963 0 0 1 0-31.644005h175.940667a16.032963 16.032963 0 1 1 0 31.644005zM301.672847 55.693449H198.724351a16.032963 16.032963 0 0 1 0-31.644005h102.948496a16.032963 16.032963 0 1 1 0 31.644005z" fill="#231815" p-id="4646"></path><path d="M668.321384 899.955501A352.303255 352.303255 0 0 1 317.28389 590.688092h-39.660487a46.833127 46.833127 0 0 1 0-93.666254h39.660487a354.412855 354.412855 0 1 1 351.037494 401.245982z m-390.697981-369.601978a15.189122 15.189122 0 0 0-15.189122 15.189122 15.189122 15.189122 0 0 0 15.189122 15.189123h53.583849a16.032963 16.032963 0 0 1 16.032962 14.345282 322.76885 322.76885 0 1 0 0-59.068809 15.611042 15.611042 0 0 1-16.032962 14.345282z" fill="#231815" p-id="4647"></path></svg>