<?xml version="1.0" standalone="no"?><!DOCTYPE svg PUBLIC "-//W3C//DTD SVG 1.1//EN" "http://www.w3.org/Graphics/SVG/1.1/DTD/svg11.dtd"><svg t="1731703299684" class="icon" viewBox="0 0 1303 1024" version="1.1" xmlns="http://www.w3.org/2000/svg" p-id="39128" xmlns:xlink="http://www.w3.org/1999/xlink" width="254.4921875" height="200"><path d="M734.983758 239.491879c-216.777697 0-392.533333 175.259152-392.533334 391.540363 0 216.746667 175.662545 392.098909 392.533334 392.09891 216.901818 0 392.533333-175.321212 392.533333-392.09891 0-216.281212-175.724606-391.540364-392.533333-391.540363z m0 77.575757c174.017939 0 314.957576 140.567273 314.957575 313.964606 0 173.893818-140.877576 314.523152-314.957575 314.523152s-314.957576-140.660364-314.957576-314.523152c0-173.397333 140.970667-313.964606 314.957576-313.964606z" fill="#5AC2EE" p-id="39129"></path><path d="M734.983758 374.039273c142.211879 0 257.551515 115.060364 257.551515 256.992969a257.551515 257.551515 0 1 1-491.271758-108.140606 38.787879 38.787879 0 0 1 70.345697 32.73697 179.913697 179.913697 0 0 0 163.374546 255.379394 179.975758 179.975758 0 0 0 179.975757-179.975758c0-99.048727-80.585697-179.417212-179.975757-179.417212-30.316606 0-59.516121 7.447273-85.457455 21.47297a38.787879 38.787879 0 1 1-36.926061-68.235636 256.651636 256.651636 0 0 1 122.383516-30.813091zM262.950788 41.146182a38.787879 38.787879 0 0 1 3.971879 77.389576l-3.971879 0.186181H152.669091a38.787879 38.787879 0 0 1-3.940849-77.358545l3.940849-0.217212h110.312727z" fill="#5AC2EE" p-id="39130"></path><path d="M912.756364 1.489455c9.029818 0 17.718303 3.165091 24.63806 8.812606l3.289212 3.072 139.605334 144.756363h124.431515a98.055758 98.055758 0 0 1 97.745454 92.191031l0.124122 5.523393V829.129697a98.055758 98.055758 0 0 1-92.346182 97.590303l-5.554424 0.155152H1105.609697v-77.575758h99.110788c10.084848 0 18.618182-7.633455 20.107636-17.221818l0.217212-2.947879V255.844848a20.44897 20.44897 0 0 0-17.345939-19.921454l-2.978909-0.217212h-140.877576a38.787879 38.787879 0 0 1-24.638061-8.812606l-3.289212-3.04097-139.605333-144.787394h-310.023758l-143.39103 145.128727a38.787879 38.787879 0 0 1-23.179636 11.264l-4.406303 0.248243H98.583273a20.48 20.48 0 0 0-20.076606 17.221818l-0.248243 2.916848V829.129697c0 9.960727 7.633455 18.46303 17.37697 19.921455l2.947879 0.248242h264.067879v77.575758h-264.067879a98.024727 98.024727 0 0 1-97.745455-92.191031l-0.155151-5.554424V255.844848A97.993697 97.993697 0 0 1 93.090909 158.285576l5.523394-0.155152h300.466424L542.533818 13.001697a38.787879 38.787879 0 0 1 23.179637-11.264l4.406303-0.248242h342.636606z" fill="#5AC2EE" p-id="39131"></path><path d="M195.677091 296.215273a51.448242 51.448242 0 1 0 0 102.896485 51.448242 51.448242 0 0 0 0-102.896485z m0 25.320727a26.127515 26.127515 0 1 1 0 52.25503 26.127515 26.127515 0 0 1 0-52.25503z" fill="#5AC2EE" p-id="39132"></path></svg>